<?xml version="1.0" encoding="utf-8"?>
<!-- Generator: Adobe Illustrator 23.0.2, SVG Export Plug-In . SVG Version: 6.00 Build 0)  -->
<svg version="1.1" id="svg2" xmlns="http://www.w3.org/2000/svg" xmlns:xlink="http://www.w3.org/1999/xlink" x="0px" y="0px"
	 viewBox="0 0 595.3 270.8" style="enable-background:new 0 0 595.3 270.8;" xml:space="preserve">
<style type="text/css">
	.st0{fill:#4776AC;}
	.st1{fill:url(#rect5400_1_);}
	.st2{fill:url(#rect5369_1_);}
	.st3{fill:#24466E;}
	.st4{fill:#111E40;}
	.st5{fill:#233259;}
	.st6{fill:#EFD895;}
	.st7{fill:#CDBA7E;}
	.st8{fill:#ADC4DE;}
	.st9{fill:#61A8CC;}
</style>
<title  id="title3551">Blue Night</title>
<g id="layer1">
	<rect id="rect4136" y="-419.2" class="st0" width="595.3" height="841.9"/>
	
		<linearGradient id="rect5400_1_" gradientUnits="userSpaceOnUse" x1="437.1566" y1="7961.0532" x2="439.0062" y2="8759.1758" gradientTransform="matrix(0.8 0 0 0.104 -52.8 -545.0388)">
		<stop  offset="0" style="stop-color:#64ADCF"/>
		<stop  offset="1" style="stop-color:#000000"/>
	</linearGradient>
	<rect id="rect5400" y="268.5" class="st1" width="595.3" height="109.5"/>
	
		<linearGradient id="rect5369_1_" gradientUnits="userSpaceOnUse" x1="437.1566" y1="-1515.9916" x2="439.0062" y2="-717.8693" gradientTransform="matrix(0.8 0 0 -0.4359 -52.8 -464.866)">
		<stop  offset="0" style="stop-color:#64B4CF"/>
		<stop  offset="1" style="stop-color:#000000"/>
	</linearGradient>
	<rect id="rect5369" y="-201" class="st2" width="595.3" height="458.7"/>
	<g id="g5319" transform="matrix(0.83479759,0,0,0.52429855,-202.90595,448.91806)">
		<rect id="rect5321" x="506.1" y="-511.7" class="st3" width="64.8" height="169.8"/>
		<path id="path5323" class="st3" d="M513.5-526.3l25.5-36.7l25.5,36.7v56.5h-50.9V-526.3z"/>
		<path id="path5325" class="st3" d="M516.7-549l7.5-10.7l7.5,10.7v16.6h-14.9V-549z"/>
	</g>
	<g id="g5302" transform="matrix(-0.58329465,0,0,0.32202369,753.24938,607.91318)">
		<path id="path5304" class="st3" d="M528.4-1220.2l64.8,37.6v132.2h-64.8V-1220.2z"/>
		<path id="path5306" class="st3" d="M543.1-1266.1l35.5,20.6v72.4h-35.5V-1266.1z"/>
	</g>
	<g id="g5254" transform="matrix(0.95322796,0,0,0.51832848,555.11055,453.61074)">
		<rect id="rect5256" x="-22.3" y="-524.7" class="st3" width="64.8" height="169.8"/>
		<rect id="rect5258" x="-10.6" y="-577.5" class="st3" width="41.5" height="133.2"/>
		<rect id="rect5260" x="2.2" y="-658.1" class="st3" width="15.8" height="133.2"/>
		<g id="g5262" transform="matrix(0.87581711,0,0,0.87581711,-18.330627,97.612097)">
			<rect id="rect5264" x="-2.8" y="-723" class="st3" width="1.2" height="16.2"/>
			<rect id="rect5266" x="1.7" y="-723" class="st3" width="1.2" height="16.2"/>
			<rect id="rect5268" x="6.1" y="-723" class="st3" width="1.2" height="16.2"/>
			<rect id="rect5270" x="-3.2" y="-723.1" class="st3" width="13.9" height="1.2"/>
		</g>
		<g id="g5272" transform="matrix(-0.87581711,0,0,0.87581711,333.76632,97.612097)">
			<rect id="rect5274" x="335.2" y="-706.8" class="st3" width="1.2" height="-16.2"/>
			<rect id="rect5276" x="339.7" y="-706.8" class="st3" width="1.2" height="-16.2"/>
			<rect id="rect5278" x="344.1" y="-706.8" class="st3" width="1.2" height="-16.2"/>
			<rect id="rect5280" x="334.5" y="-721.9" class="st3" width="14.2" height="-1.2"/>
		</g>
		<g id="g5282" transform="matrix(0.87581711,0,0,0.87581711,-4.0868136,32.585994)">
			<rect id="rect5284" x="-6" y="-708.1" class="st3" width="1.2" height="16.2"/>
			<rect id="rect5286" x="-1.5" y="-708.1" class="st3" width="1.2" height="16.2"/>
			<rect id="rect5288" x="2.9" y="-708.1" class="st3" width="1.2" height="16.2"/>
			<rect id="rect5290" x="-6.9" y="-708.3" class="st3" width="14.3" height="1.2"/>
		</g>
		<g id="g5292" transform="matrix(0.87581711,0,0,0.87581711,33.070959,32.585994)">
			<rect id="rect5294" x="-14.5" y="-708.1" class="st3" width="1.2" height="16.2"/>
			<rect id="rect5296" x="-10" y="-708.1" class="st3" width="1.2" height="16.2"/>
			<rect id="rect5298" x="-5.6" y="-708.1" class="st3" width="1.2" height="16.2"/>
			<rect id="rect5300" x="-17.2" y="-708.3" class="st3" width="13.5" height="1.2"/>
		</g>
	</g>
	<g id="g4378" transform="matrix(0.52177903,0,0,0.52177903,219.39543,450.89849)">
		<path id="rect4169" class="st4" d="M186-517.1l64.8,37.6v132.2H186V-517.1z"/>
		<path id="path4172" class="st4" d="M200.7-563l35.5,20.6v72.4h-35.5V-563z"/>
	</g>
	<g id="g4397" transform="matrix(0.33329004,0,0,0.33329004,330.03051,599.05743)">
		<rect id="rect4185" x="184.8" y="-1158.1" class="st4" width="64.8" height="169.8"/>
		<rect id="rect4187" x="192.1" y="-1176.5" class="st4" width="50.1" height="131.3"/>
		<rect id="rect4189" x="199.4" y="-1190.2" class="st4" width="35.5" height="131.3"/>
		<rect id="rect4191" x="209.5" y="-1200.3" class="st4" width="15.3" height="109.4"/>
	</g>
	<g id="g4316" transform="matrix(0.52177903,0,0,0.52177903,274.66909,450.89849)">
		<rect id="rect4163" x="-11.1" y="-517.1" class="st5" width="64.8" height="169.8"/>
		<rect id="rect4165" x="0.6" y="-569.9" class="st5" width="41.5" height="133.2"/>
		<rect id="rect4167" x="13.4" y="-650.6" class="st5" width="15.8" height="133.2"/>
		<g id="g4219" transform="matrix(0.87581711,0,0,0.87581711,-18.330627,97.612097)">
			<rect id="rect4211" x="10" y="-714.4" class="st5" width="1.2" height="16.2"/>
			<rect id="rect4213" x="14.5" y="-714.4" class="st5" width="1.2" height="16.2"/>
			<rect id="rect4215" x="18.9" y="-714.4" class="st5" width="1.2" height="16.2"/>
			<rect id="rect4217" x="9.6" y="-714.5" class="st5" width="13.9" height="1.2"/>
		</g>
		<g id="g4225" transform="matrix(-0.87581711,0,0,0.87581711,333.76632,97.612097)">
			<rect id="rect4227" x="322.4" y="-698.2" class="st5" width="1.2" height="-16.2"/>
			<rect id="rect4229" x="326.9" y="-698.2" class="st5" width="1.2" height="-16.2"/>
			<rect id="rect4231" x="331.3" y="-698.2" class="st5" width="1.2" height="-16.2"/>
			<rect id="rect4233" x="321.7" y="-713.3" class="st5" width="14.2" height="-1.2"/>
		</g>
		<g id="g4235" transform="matrix(0.87581711,0,0,0.87581711,-4.0868136,32.585994)">
			<rect id="rect4237" x="6.7" y="-699.5" class="st5" width="1.2" height="16.2"/>
			<rect id="rect4239" x="11.2" y="-699.5" class="st5" width="1.2" height="16.2"/>
			<rect id="rect4241" x="15.6" y="-699.5" class="st5" width="1.2" height="16.2"/>
			<rect id="rect4243" x="5.9" y="-699.6" class="st5" width="14.3" height="1.2"/>
		</g>
		<g id="g4245" transform="matrix(0.87581711,0,0,0.87581711,33.070959,32.585994)">
			<rect id="rect4247" x="-1.8" y="-699.5" class="st5" width="1.2" height="16.2"/>
			<rect id="rect4249" x="2.7" y="-699.5" class="st5" width="1.2" height="16.2"/>
			<rect id="rect4251" x="7.1" y="-699.5" class="st5" width="1.2" height="16.2"/>
			<rect id="rect4253" x="-4.4" y="-699.6" class="st5" width="13.5" height="1.2"/>
		</g>
	</g>
	<g id="g4367" transform="matrix(0.36030541,0,0,0.36030541,185.06512,577.82241)">
		<rect id="rect4193" x="75.4" y="-1025.1" class="st4" width="64.8" height="169.8"/>
		<rect id="rect4195" x="68.9" y="-1025.1" class="st4" width="77.8" height="10.4"/>
		<rect id="rect4197" x="85.4" y="-1039.3" class="st4" width="44.7" height="21.4"/>
		<path id="rect4199" class="st4" d="M93.8-1053.2h8.5c2.4,0,4.4,1.9,4.4,4.4v9.8c0,2.4-1.9,4.4-4.4,4.4h-8.5
			c-2.4,0-4.4-1.9-4.4-4.4v-9.8C89.4-1051.2,91.4-1053.2,93.8-1053.2z"/>
		<rect id="rect4201" x="72.8" y="-992.1" class="st4" width="70" height="10.4"/>
		<rect id="rect4203" x="72.8" y="-962.3" class="st4" width="70" height="10.4"/>
		<rect id="rect4205" x="72.8" y="-934.4" class="st4" width="70" height="10.4"/>
		<rect id="rect4207" x="72.8" y="-905.9" class="st4" width="70" height="10.4"/>
		<rect id="rect4209" x="72.8" y="-879.8" class="st4" width="70" height="10.4"/>
	</g>
	<g id="g5143" transform="matrix(0.52177903,0,0,0.41764216,100.23239,532.75371)">
		<rect id="rect5145" x="-20.9" y="-799.7" class="st5" width="64.8" height="169.8"/>
		<path id="path5147" class="st5" d="M-13.5-814.3L11.9-851l25.5,36.7v56.5h-50.9V-814.3z"/>
	</g>
	<g id="g4312" transform="matrix(0.52177903,0,0,0.52177903,72.768807,450.89849)">
		<rect id="rect4255" x="-10.3" y="-517.1" class="st4" width="64.8" height="169.8"/>
		<path id="rect4257" class="st4" d="M-3-531.7l25.5-36.7l25.5,36.7v56.5H-3V-531.7z"/>
	</g>
	<g id="g4307" transform="matrix(0.52177903,0,0,0.52177903,256.47826,450.89849)">
		<rect id="rect4260" x="359.2" y="-517.1" class="st4" width="64.8" height="169.8"/>
		<path id="path4262" class="st4" d="M366.5-531.7l25.5-36.7l25.5,36.7v56.5h-50.9V-531.7z"/>
		<path id="path4264" class="st4" d="M369.7-554.5l7.5-10.7l7.5,10.7v16.6h-14.9V-554.5z"/>
	</g>
	<g id="g5179" transform="translate(0,75)">
		<g id="g5149" transform="matrix(0.45019753,0,0,0.45019753,547.75101,432.16406)">
			<rect id="rect5151" x="-65.3" y="-697.3" class="st5" width="64.8" height="169.8"/>
			<rect id="rect5153" x="-71.7" y="-697.3" class="st5" width="77.8" height="10.4"/>
			<rect id="rect5155" x="-55.2" y="-711.6" class="st5" width="44.7" height="21.4"/>
			<path id="rect5157" class="st5" d="M-46.8-725.4h8.5c2.4,0,4.4,1.9,4.4,4.4v9.8c0,2.4-1.9,4.4-4.4,4.4h-8.5
				c-2.4,0-4.4-1.9-4.4-4.4v-9.8C-51.2-723.5-49.2-725.4-46.8-725.4z"/>
			<rect id="rect5159" x="-67.8" y="-664.3" class="st5" width="70" height="10.4"/>
			<rect id="rect5161" x="-67.8" y="-634.6" class="st5" width="70" height="10.4"/>
			<rect id="rect5163" x="-67.8" y="-606.6" class="st5" width="70" height="10.4"/>
			<rect id="rect5165" x="-67.8" y="-578.2" class="st5" width="70" height="10.4"/>
			<rect id="rect5167" x="-67.8" y="-552.1" class="st5" width="70" height="10.4"/>
		</g>
		<g id="g5169" transform="matrix(0.64088906,0,0,0.22635969,363.85711,608.10842)">
			<rect id="rect5171" x="269.3" y="-1996.3" class="st5" width="64.8" height="169.8"/>
			<rect id="rect5173" x="276.6" y="-2014.7" class="st5" width="50.1" height="131.3"/>
			<rect id="rect5175" x="283.9" y="-2028.4" class="st5" width="35.5" height="131.3"/>
			<rect id="rect5177" x="294" y="-2038.5" class="st5" width="15.3" height="109.4"/>
		</g>
	</g>
	<g id="g4302" transform="matrix(0.48948403,0,0,0.48948403,288.10097,476.2835)">
		<path id="rect4266" class="st4" d="M436-591.9c0,0-5,56.6-8.2,84.9c-3.3,28.3-18.4,84.9-18.4,84.9h8.1h8.1l8.1-23.6h8.1h8.1
			l8.1,23.6h8.1h8.1c0,0-15.1-56.6-18.4-84.9c-3.3-28.3-8.2-84.9-8.2-84.9H436z M436.4-565.5l6,5l4.8-4c0.1,1,0.2,2.4,0.3,3.4
			l-2.9,2.4l3.4,2.8c0.1,1.4,0.2,2.5,0.4,4l-5.9-4.9l-7.4,6.1c0.1-1.5,0.2-2.5,0.4-4l4.8-4l-4.1-3.4
			C436.2-563.1,436.3-564.6,436.4-565.5z M434.9-549.2l7.5,6.2l6.3-5.2l0.3,3.4l-4.4,3.6l5.1,4.3l0.4,4l-7.7-6.4l-8,6.6l8,6.6
			l7.8-6.5l0.3,3.4l-5.9,4.9l7,5.8l0.4,4l-9.6-8l-9.7,8.1l9.7,8.1l9.6-8l0.5,4.4l-7.2,6l9.2,7.6l1.8,9.4l-10.5,8.7l12.7,10.5
			l1.7-1.4l2.5,10.5l-4.2-3.5l-16,14.2l-16-14.2l-5.9,4.9l1.7-7l0.8-0.7l-0.5-0.5l1.1-4.7l2.8,2.3l12.7-10.5l-11.6-9.7l1.4-7.1
			l10.7-8.9l-8.4-7l0.7-6.3l8.4-7l-7.1-5.9l0.5-5.6l6.6-5.5l-5.6-4.7L434.9-549.2z M442.5-501.4l-12.3,10.2l12.3,10.2l12.3-10.2
			L442.5-501.4z M442.5-475.3l-12.7,10.5l12.7,10.5l12.7-10.5L442.5-475.3z"/>
		<rect id="rect4269" x="431.6" y="-589.2" class="st4" width="20.5" height="7.8"/>
		<rect id="rect4300" x="440" y="-596.6" class="st4" width="3.5" height="7.4"/>
	</g>
	<g id="g4391" transform="matrix(0.4839647,0,0,0.4839647,468.71418,429.84673)">
		<rect id="rect4382" x="137.1" y="-363.8" class="st4" width="109.5" height="32.9"/>
		<rect id="rect4384" x="228.2" y="-379.6" class="st4" width="12.7" height="29.5"/>
		<rect id="rect4386" x="142.7" y="-379.6" class="st4" width="15.6" height="29.5"/>
		<path id="rect4388" class="st4" d="M163.5-388.6l29.9-19.8l29.9,19.8v32.9h-59.9L163.5-388.6z"/>
	</g>
	<g id="g4904" transform="matrix(0.59697739,0,0,0.59697739,-104.15457,68.665816)">
		<circle id="path4157" class="st6" cx="339.8" cy="-580.9" r="110.2"/>
		<ellipse id="circle4423" class="st7" cx="328.2" cy="-595.2" rx="107.6" ry="110.2"/>
		<circle id="circle4403" class="st0" cx="320.4" cy="-604.6" r="110.2"/>
	</g>
	<g id="g4463" transform="translate(-139.93352,75)">
		<path id="rect4427" class="st4" d="M149.2,133.5h41v61.2h-41V133.5z"/>
		<path id="rect4429" class="st4" d="M146.8,133.5h45.7v3.7h-45.7V133.5z"/>
		<path id="rect4431" class="st4" d="M152.8,128.3h33.8v7.7h-33.8L152.8,128.3z"/>
		<path id="rect4433" class="st4" d="M155.8,123.4h20.7c0.9,0,1.6,0.7,1.6,1.6v3.5c0,0.9-0.7,1.6-1.6,1.6h-20.7
			c-0.9,0-1.6-0.7-1.6-1.6v-3.5C154.3,124.1,155,123.4,155.8,123.4z"/>
		<path id="rect4435" class="st4" d="M148.2,145.4h42.9v3.7h-42.9V145.4z"/>
		<path id="rect4437" class="st4" d="M148.2,156.1h42.9v3.7h-42.9V156.1z"/>
		<path id="rect4439" class="st4" d="M148.2,166.2h42.9v3.7h-42.9V166.2z"/>
		<path id="rect4441" class="st4" d="M148.2,176.4h42.9v3.7h-42.9V176.4z"/>
		<path id="rect4443" class="st4" d="M148.2,185.8h42.9v3.7h-42.9V185.8z"/>
	</g>
	<g id="g5337" transform="matrix(0.85920873,0,0,0.85920873,-391.86008,185.66687)">
		<g id="g5339" transform="matrix(0.45019753,0,0,0.45019753,547.75101,432.16406)">
			<rect id="rect5341" x="137.3" y="-912.6" class="st5" width="64.8" height="169.8"/>
			<rect id="rect5343" x="130.9" y="-912.6" class="st5" width="77.8" height="10.4"/>
			<rect id="rect5345" x="147.4" y="-926.8" class="st5" width="44.7" height="21.4"/>
			<path id="rect5347" class="st5" d="M155.8-940.7h8.5c2.4,0,4.4,1.9,4.4,4.4v9.8c0,2.4-1.9,4.4-4.4,4.4h-8.5
				c-2.4,0-4.4-1.9-4.4-4.4v-9.8C151.4-938.7,153.4-940.7,155.8-940.7z"/>
			<rect id="rect5349" x="134.8" y="-879.6" class="st5" width="70" height="10.4"/>
			<rect id="rect5351" x="134.8" y="-849.8" class="st5" width="70" height="10.4"/>
			<rect id="rect5353" x="134.8" y="-821.9" class="st5" width="70" height="10.4"/>
			<rect id="rect5355" x="134.8" y="-793.5" class="st5" width="70" height="10.4"/>
			<rect id="rect5357" x="134.8" y="-767.4" class="st5" width="70" height="10.4"/>
		</g>
		<g id="g5359" transform="matrix(0.64088906,0,0,0.22635969,363.85711,608.10842)">
			<rect id="rect5361" x="411.6" y="-2424.4" class="st5" width="64.8" height="169.8"/>
			<rect id="rect5363" x="418.9" y="-2442.8" class="st5" width="50.1" height="131.3"/>
			<rect id="rect5365" x="426.3" y="-2456.5" class="st5" width="35.5" height="131.3"/>
			<rect id="rect5367" x="436.3" y="-2466.6" class="st5" width="15.3" height="109.4"/>
		</g>
	</g>
	<g id="g4474" transform="matrix(0.4839647,0,0,0.4839647,-84.09779,429.84673)">
		<rect id="rect4476" x="365.5" y="-363.8" class="st4" width="109.5" height="32.9"/>
		<rect id="rect4478" x="456.6" y="-379.6" class="st4" width="12.7" height="29.5"/>
		<rect id="rect4480" x="371.2" y="-379.6" class="st4" width="15.6" height="29.5"/>
		<path id="path4482" class="st4" d="M391.9-388.6l29.9-19.8l29.9,19.8v32.9h-59.9L391.9-388.6z"/>
	</g>
	<g id="g4484" transform="matrix(0.3004811,0,0,0.3004811,369.98544,624.84641)">
		<rect id="rect4486" x="-68.2" y="-1351.9" class="st4" width="64.8" height="169.8"/>
		<rect id="rect4488" x="-74.7" y="-1351.9" class="st4" width="77.8" height="10.4"/>
		<rect id="rect4490" x="-58.1" y="-1366.1" class="st4" width="44.7" height="21.4"/>
		<path id="rect4492" class="st4" d="M-49.8-1380h8.5c2.4,0,4.4,1.9,4.4,4.4v9.8c0,2.4-1.9,4.4-4.4,4.4h-8.5c-2.4,0-4.4-1.9-4.4-4.4
			v-9.8C-54.1-1378-52.2-1380-49.8-1380z"/>
		<rect id="rect4494" x="-70.8" y="-1318.9" class="st4" width="70" height="10.4"/>
		<rect id="rect4496" x="-70.8" y="-1289.1" class="st4" width="70" height="10.4"/>
		<rect id="rect4498" x="-70.8" y="-1261.1" class="st4" width="70" height="10.4"/>
		<rect id="rect4500" x="-70.8" y="-1232.7" class="st4" width="70" height="10.4"/>
		<rect id="rect4502" x="-70.8" y="-1206.6" class="st4" width="70" height="10.4"/>
	</g>
	<g id="g4504" transform="matrix(0.52177903,0,0,0.52177903,-18.33091,450.89849)">
		<rect id="rect4506" x="101.2" y="-517.1" class="st4" width="64.8" height="169.8"/>
		<rect id="rect4508" x="112.9" y="-569.9" class="st4" width="41.5" height="133.2"/>
		<rect id="rect4510" x="125.7" y="-650.6" class="st4" width="15.8" height="133.2"/>
		<g id="g4512" transform="matrix(0.87581711,0,0,0.87581711,-18.330627,97.612097)">
			<rect id="rect4514" x="138.2" y="-714.4" class="st4" width="1.2" height="16.2"/>
			<rect id="rect4516" x="142.7" y="-714.4" class="st4" width="1.2" height="16.2"/>
			<rect id="rect4518" x="147.1" y="-714.4" class="st4" width="1.2" height="16.2"/>
			<rect id="rect4520" x="137.8" y="-714.5" class="st4" width="13.9" height="1.2"/>
		</g>
		<g id="g4522" transform="matrix(-0.87581711,0,0,0.87581711,333.76632,97.612097)">
			<rect id="rect4524" x="194.2" y="-698.2" class="st4" width="1.2" height="-16.2"/>
			<rect id="rect4526" x="198.7" y="-698.2" class="st4" width="1.2" height="-16.2"/>
			<rect id="rect4528" x="203.1" y="-698.2" class="st4" width="1.2" height="-16.2"/>
			<rect id="rect4530" x="193.5" y="-713.3" class="st4" width="14.2" height="-1.2"/>
		</g>
		<g id="g4532" transform="matrix(0.87581711,0,0,0.87581711,-4.0868136,32.585994)">
			<rect id="rect4534" x="135" y="-699.5" class="st4" width="1.2" height="16.2"/>
			<rect id="rect4536" x="139.5" y="-699.5" class="st4" width="1.2" height="16.2"/>
			<rect id="rect4538" x="143.9" y="-699.5" class="st4" width="1.2" height="16.2"/>
			<rect id="rect4540" x="134.1" y="-699.6" class="st4" width="14.3" height="1.2"/>
		</g>
		<g id="g4542" transform="matrix(0.87581711,0,0,0.87581711,33.070959,32.585994)">
			<rect id="rect4544" x="126.5" y="-699.5" class="st4" width="1.2" height="16.2"/>
			<rect id="rect4546" x="131" y="-699.5" class="st4" width="1.2" height="16.2"/>
			<rect id="rect4548" x="135.4" y="-699.5" class="st4" width="1.2" height="16.2"/>
			<rect id="rect4550" x="123.8" y="-699.6" class="st4" width="13.5" height="1.2"/>
		</g>
	</g>
	<g id="g4552" transform="matrix(0.4444136,0,0,0.19740497,425.85451,705.86785)">
		<rect id="rect4554" x="191.2" y="-2379.5" class="st4" width="64.8" height="169.8"/>
		<rect id="rect4556" x="198.5" y="-2397.9" class="st4" width="50.1" height="131.3"/>
		<rect id="rect4558" x="205.8" y="-2411.6" class="st4" width="35.5" height="131.3"/>
		<rect id="rect4560" x="215.9" y="-2421.7" class="st4" width="15.3" height="109.4"/>
	</g>
	<g id="g4562" transform="matrix(-0.52177903,0,0,0.28806232,394.01012,634.60801)">
		<path id="path4564" class="st4" d="M421.1-1436.7l64.8,37.6v132.2h-64.8V-1436.7z"/>
		<path id="path4566" class="st4" d="M435.8-1482.6l35.5,20.6v72.4h-35.5V-1482.6z"/>
	</g>
	<g id="g5327" transform="matrix(0.46162594,0,0,0.46162594,8.6178843,498.18092)">
		<rect id="rect5329" x="379.1" y="-664.8" class="st5" width="64.8" height="169.8"/>
		<rect id="rect5331" x="386.4" y="-683.2" class="st5" width="50.1" height="131.3"/>
		<rect id="rect5333" x="393.8" y="-696.9" class="st5" width="35.5" height="131.3"/>
		<rect id="rect5335" x="403.8" y="-707" class="st5" width="15.3" height="109.4"/>
	</g>
	<g id="g4568" transform="matrix(-0.42300254,0,0,0.23353007,404.9059,677.47227)">
		<path id="path4570" class="st4" d="M461.6-1916.1l64.8,37.6v132.2h-64.8V-1916.1z"/>
		<path id="path4572" class="st4" d="M476.2-1962l35.5,20.6v72.4h-35.5V-1962z"/>
	</g>
	<g id="g4574" transform="matrix(0.52177903,0,0,0.52177903,72.768807,450.89849)">
		<rect id="rect4576" x="-139.1" y="-365.3" class="st4" width="466.5" height="18"/>
		<rect id="rect4589" x="343.8" y="-359.9" class="st4" width="175" height="12.5"/>
		<rect id="rect4591" x="290.6" y="-355.3" class="st4" width="465.9" height="7.9"/>
		<rect id="rect4593" x="771.3" y="-370.9" class="st4" width="230.5" height="23.5"/>
	</g>
	<g id="g4595" transform="matrix(0.4839647,0,0,0.4839647,379.01371,429.84673)">
		<rect id="rect4597" x="174.2" y="-363.8" class="st4" width="109.5" height="32.9"/>
		<rect id="rect4599" x="265.2" y="-379.6" class="st4" width="12.7" height="29.5"/>
		<rect id="rect4601" x="179.8" y="-379.6" class="st4" width="15.6" height="29.5"/>
		<path id="path4603" class="st4" d="M200.6-388.6l29.9-19.8l29.9,19.8v32.9h-59.9L200.6-388.6z"/>
	</g>
	<g id="g4605" transform="matrix(0.75138407,0,0,0.75138407,195.77996,191.56671)">
		<rect id="rect4607" x="278.7" y="71.1" class="st4" width="109.5" height="32.9"/>
		<rect id="rect4609" x="369.7" y="55.3" class="st4" width="12.7" height="29.5"/>
		<rect id="rect4611" x="284.3" y="55.3" class="st4" width="15.6" height="29.5"/>
		<path id="path4613" class="st4" d="M305.1,46.3L335,26.5L365,46.3v32.9h-59.9V46.3z"/>
	</g>
	<g id="g4615" transform="matrix(0.36388596,0,0,0.36388596,81.409542,575.008)">
		<path id="path4617" class="st4" d="M508.9-1008.9c0,0-5,56.6-8.2,84.9c-3.3,28.3-18.4,84.9-18.4,84.9h8.1h8.1l8.1-23.6h8.1h8.1
			l8.1,23.6h8.1h8.1c0,0-15.1-56.6-18.4-84.9c-3.3-28.3-8.2-84.9-8.2-84.9H508.9z M509.4-982.5l6,5l4.8-4c0.1,1,0.2,2.4,0.3,3.4
			l-2.9,2.4l3.4,2.8c0.1,1.4,0.2,2.5,0.4,4l-5.9-4.9l-7.4,6.1c0.1-1.5,0.2-2.5,0.4-4l4.8-4l-4.1-3.4
			C509.2-980.2,509.3-981.6,509.4-982.5z M507.9-966.2l7.5,6.2l6.3-5.2l0.3,3.4l-4.4,3.6l5.1,4.3l0.4,4l-7.7-6.4l-8,6.6l8,6.6
			l7.8-6.5l0.3,3.4l-5.9,4.9l7,5.8l0.4,4l-9.6-8l-9.7,8.1l9.7,8.1l9.6-8l0.5,4.4l-7.2,6l9.2,7.6l1.8,9.4l-10.5,8.7l12.7,10.5
			l1.7-1.4l2.5,10.5l-4.2-3.5l-16,14.2l-16-14.2l-5.9,4.9l1.7-7l0.8-0.7l-0.5-0.5l1.1-4.7l2.8,2.3l12.7-10.5l-11.6-9.7l1.4-7.1
			l10.7-8.9l-8.4-7l0.7-6.3l8.4-7l-7.1-5.9l0.5-5.5l6.6-5.5l-5.6-4.7L507.9-966.2z M515.4-918.4l-12.3,10.2l12.3,10.2l12.3-10.2
			L515.4-918.4z M515.4-892.3l-12.7,10.5l12.7,10.5l12.7-10.5L515.4-892.3z"/>
		<rect id="rect4619" x="504.6" y="-1006.2" class="st4" width="20.5" height="7.8"/>
		<rect id="rect4621" x="513" y="-1013.6" class="st4" width="3.5" height="7.4"/>
	</g>
	<g id="g4623" transform="matrix(-0.42300254,0,0,0.11709108,637.59956,768.99739)">
		<path id="path4625" class="st4" d="M571.6-4434.4l64.8,37.6v132.2h-64.8V-4434.4z"/>
		<path id="path4627" class="st4" d="M586.2-4480.3l35.5,20.6v72.4h-35.5V-4480.3z"/>
	</g>
	<g id="g4629" transform="matrix(0.29571596,0,0,0.29571596,428.14005,628.59197)">
		<rect id="rect4631" x="-195.4" y="-1383.6" class="st4" width="64.8" height="169.8"/>
		<rect id="rect4633" x="-183.7" y="-1436.4" class="st4" width="41.5" height="133.2"/>
		<rect id="rect4635" x="-170.9" y="-1517" class="st4" width="15.8" height="133.2"/>
		<g id="g4637" transform="matrix(0.87581711,0,0,0.87581711,-18.330627,97.612097)">
			<rect id="rect4639" x="-200.4" y="-1703.7" class="st4" width="1.2" height="16.2"/>
			<rect id="rect4641" x="-195.9" y="-1703.7" class="st4" width="1.2" height="16.2"/>
			<rect id="rect4643" x="-191.5" y="-1703.7" class="st4" width="1.2" height="16.2"/>
			<rect id="rect4645" x="-200.8" y="-1703.8" class="st4" width="13.9" height="1.2"/>
		</g>
		<g id="g4647" transform="matrix(-0.87581711,0,0,0.87581711,333.76632,97.612097)">
			<rect id="rect4649" x="532.8" y="-1687.5" class="st4" width="1.2" height="-16.2"/>
			<rect id="rect4651" x="537.3" y="-1687.5" class="st4" width="1.2" height="-16.2"/>
			<rect id="rect4653" x="541.7" y="-1687.5" class="st4" width="1.2" height="-16.2"/>
			<rect id="rect4655" x="532.1" y="-1702.6" class="st4" width="14.2" height="-1.2"/>
		</g>
		<g id="g4657" transform="matrix(0.87581711,0,0,0.87581711,-4.0868136,32.585994)">
			<rect id="rect4659" x="-203.7" y="-1688.8" class="st4" width="1.2" height="16.2"/>
			<rect id="rect4661" x="-199.2" y="-1688.8" class="st4" width="1.2" height="16.2"/>
			<rect id="rect4663" x="-194.8" y="-1688.8" class="st4" width="1.2" height="16.2"/>
			<rect id="rect4665" x="-204.5" y="-1688.9" class="st4" width="14.3" height="1.2"/>
		</g>
		<g id="g4667" transform="matrix(0.87581711,0,0,0.87581711,33.070959,32.585994)">
			<rect id="rect4669" x="-212.2" y="-1688.8" class="st4" width="1.2" height="16.2"/>
			<rect id="rect4671" x="-207.7" y="-1688.8" class="st4" width="1.2" height="16.2"/>
			<rect id="rect4673" x="-203.3" y="-1688.8" class="st4" width="1.2" height="16.2"/>
			<rect id="rect4675" x="-214.8" y="-1688.9" class="st4" width="13.5" height="1.2"/>
		</g>
	</g>
	<g id="g4677" transform="matrix(0.54717479,0,0,0.41460501,93.628628,535.14102)">
		<rect id="rect4679" x="348.6" y="-810.1" class="st4" width="64.8" height="169.8"/>
		<rect id="rect4681" x="355.9" y="-828.5" class="st4" width="50.1" height="131.3"/>
		<rect id="rect4683" x="363.3" y="-842.2" class="st4" width="35.5" height="131.3"/>
		<rect id="rect4685" x="373.3" y="-852.3" class="st4" width="15.3" height="109.4"/>
	</g>
	<g id="g4687" transform="matrix(0.51292106,0,0,0.18116186,37.889808,718.6355)">
		<rect id="rect4689" x="368.1" y="-2648.1" class="st4" width="64.8" height="169.8"/>
		<rect id="rect4691" x="375.4" y="-2666.5" class="st4" width="50.1" height="131.3"/>
		<rect id="rect4693" x="382.7" y="-2680.2" class="st4" width="35.5" height="131.3"/>
		<rect id="rect4695" x="392.8" y="-2690.3" class="st4" width="15.3" height="109.4"/>
	</g>
	<g id="g4697" transform="matrix(-0.40847807,0,0,0.22551144,175.54914,683.7752)">
		<path id="path4699" class="st4" d="M356.1-2006.1l64.8,37.6v132.2h-64.8V-2006.1z"/>
		<path id="path4701" class="st4" d="M370.7-2052l35.5,20.6v72.4h-35.5V-2052z"/>
	</g>
	<g id="g4703" transform="matrix(0.4839647,0,0,0.4839647,-6.0135429,429.84673)">
		<rect id="rect4705" x="333.3" y="-363.8" class="st4" width="109.5" height="32.9"/>
		<rect id="rect4707" x="424.3" y="-379.6" class="st4" width="12.7" height="29.5"/>
		<rect id="rect4709" x="338.9" y="-379.6" class="st4" width="15.6" height="29.5"/>
		<path id="path4711" class="st4" d="M359.7-388.6l29.9-19.8l29.9,19.8v32.9h-59.9L359.7-388.6z"/>
	</g>
	<g id="g4713" transform="matrix(0.31186332,0,0,0.31186332,130.99521,615.89958)">
		<rect id="rect4715" x="-66.5" y="-1280" class="st4" width="64.8" height="169.8"/>
		<path id="path4717" class="st4" d="M-59.1-1294.6l25.5-36.7l25.5,36.7v56.5h-50.9V-1294.6z"/>
	</g>
	<g id="g4719" transform="matrix(0.26785722,0,0,0.26785722,596.145,610.63596)">
		<rect id="rect4721" x="-114.3" y="-1340.9" class="st4" width="109.5" height="32.9"/>
		<rect id="rect4723" x="-23.3" y="-1356.7" class="st4" width="12.7" height="29.5"/>
		<rect id="rect4725" x="-108.7" y="-1356.7" class="st4" width="15.6" height="29.5"/>
		<path id="path4727" class="st4" d="M-87.9-1365.7l29.9-19.8l29.9,19.8v32.9h-59.9L-87.9-1365.7z"/>
	</g>
	<g id="g4729" transform="matrix(0.10540167,0,0,0.10540167,651.87339,727.25392)">
		<rect id="rect4731" x="-906.1" y="-4676.9" class="st4" width="109.5" height="32.9"/>
		<rect id="rect4733" x="-815.1" y="-4692.8" class="st4" width="12.7" height="29.5"/>
		<rect id="rect4735" x="-900.5" y="-4692.8" class="st4" width="15.6" height="29.5"/>
		<path id="path4737" class="st4" d="M-879.7-4701.7l29.9-19.8l29.9,19.8v32.9h-59.9L-879.7-4701.7z"/>
	</g>
	<circle id="path4770-6-7-0-9" class="st8" cx="391.5" cy="156.9" r="2.4"/>
	<circle id="path4770-6-7-0-3-0" class="st8" cx="244.5" cy="147.6" r="1.1"/>
	<g id="g5196" transform="matrix(1,0,0,0.72409098,0,290.35623)">
		<path id="rect4963" class="st4" d="M0-25.2h141.4L0-21V-25.2z"/>
		<path id="path4987" class="st4" d="M0-17.8h107.8L0-14.6V-17.8z"/>
		<path id="path4989" class="st4" d="M0-10.4h54.3L0-7.5V-10.4z"/>
		<path id="path4991" class="st4" d="M0-2.8h24.9L0-0.4V-2.8z"/>
		<path id="path4993" class="st4" d="M0,3.8h21L0,5.9V3.8z"/>
		<g id="g5037">
			<path id="path4995" class="st4" d="M595.3-26H453.9l141.4,4.1V-26z"/>
			<path id="path4997" class="st4" d="M595.3-18.7H487.4l107.8,3.2V-18.7z"/>
			<path id="path4999" class="st4" d="M595.3-11.3H541l54.3,2.9V-11.3z"/>
			<path id="path5001" class="st4" d="M595.3-3.7h-24.9l24.9,2.4V-3.7z"/>
			<path id="path5003" class="st4" d="M595.3,2.9h-21l21,2V2.9z"/>
			<path id="path5005" class="st4" d="M595.3,9H467l128.3,2.7V9z"/>
			<path id="path5007" class="st4" d="M595.3,16h-58.9l58.9,2.2V16z"/>
			<path id="path5009" class="st4" d="M595.3,22.1h-49.6l49.6,2V22.1z"/>
			<path id="path5011" class="st4" d="M595.3,33.2H588l7.3,2V33.2z"/>
			<path id="path5013" class="st4" d="M595.3,39.3h-44.6l44.6,2.7V39.3z"/>
			<path id="path5015" class="st4" d="M595.3,46.4h-20.5l20.5,2.2V46.4z"/>
			<path id="path5017" class="st4" d="M595.3,52.5H578l17.2,2V52.5z"/>
		</g>
		<path id="path5019" class="st4" d="M0,5.9h24.9L0,8.2V5.9z"/>
		<path id="path5021" class="st4" d="M0,12.4h21l-21,2V12.4z"/>
		<path id="path5023" class="st4" d="M0,18.5h128.3L0,21.2V18.5z"/>
		<path id="path5025" class="st4" d="M0,25.6h58.9L0,27.8V25.6z"/>
		<path id="path5027" class="st4" d="M0,31.7h49.6L0,33.6V31.7z"/>
		<path id="path5029" class="st4" d="M0,42.7h7.3l-7.3,2V42.7z"/>
		<path id="path5031" class="st4" d="M0,48.9h44.6L0,51.6V48.9z"/>
		<path id="path5033" class="st4" d="M0,55.9h20.5L0,58.1V55.9z"/>
		<path id="path5035" class="st4" d="M0,62h17.2L0,64V62z"/>
		<path id="path5053" class="st4" d="M595.3,182.8H323.7l271.6-4.1V182.8z"/>
		<path id="path5055" class="st4" d="M595.3,175.4H418.5l176.8-3.2V175.4z"/>
		<path id="path5057" class="st4" d="M595.3,168H470l125.2-2.9V168z"/>
		<path id="path5059" class="st4" d="M595.3,160.4h-97.8l97.8-2.4V160.4z"/>
		<path id="path5061" class="st4" d="M595.3,153.9h-54.4l54.4-2V153.9z"/>
		<path id="path5063" class="st4" d="M595.3,147.8h-93.5l93.5-2.7V147.8z"/>
		<path id="path5065" class="st4" d="M595.3,140.7h-42.9l42.9-2.2V140.7z"/>
		<path id="path5067" class="st4" d="M595.3,134.6h-36.1l36.1-2V134.6z"/>
		<path id="path5069" class="st4" d="M595.3,123.5H588l7.3-2V123.5z"/>
		<path id="path5071" class="st4" d="M595.3,117.4h-44.6l44.6-2.7V117.4z"/>
		<path id="path5073" class="st4" d="M595.3,110.4h-20.5l20.5-2.2V110.4z"/>
		<path id="path5075" class="st4" d="M595.3,104.3H578l17.2-2V104.3z"/>
		<path id="path5077" class="st4" d="M0,182.8h207.2L0,179.6V182.8z"/>
		<path id="path5079" class="st4" d="M0,175.4h105.9L0,172.5V175.4z"/>
		<path id="path5081" class="st4" d="M0,167.8h64.4L0,165.4V167.8z"/>
		<path id="path5083" class="st4" d="M0,161.3h54.4l-54.4-2V161.3z"/>
		<path id="path5085" class="st4" d="M0,155.2h93.5L0,152.5V155.2z"/>
		<path id="path5087" class="st4" d="M0,148.1h42.9L0,145.9V148.1z"/>
		<path id="path5089" class="st4" d="M0,142h36.1L0,140V142z"/>
		<path id="path5091" class="st4" d="M0,130.9h7.3L0,129V130.9z"/>
		<path id="path5093" class="st4" d="M0,124.8h44.6L0,122.1V124.8z"/>
		<path id="path5095" class="st4" d="M0,117.8h20.5L0,115.5V117.8z"/>
		<path id="path5097" class="st4" d="M0,111.7h17.2l-17.2-2V111.7z"/>
		<path id="path5122" class="st4" d="M203.6,18.8L306.8,21L410,18.8H306.8H203.6z"/>
		<path id="path5127" class="st4" d="M235.4,27.2l48.1,1.5l48.1-1.5h-48.1H235.4z"/>
		<path id="path5129" class="st4" d="M261.3,37.7l33.7-1l33.7,1H295H261.3z"/>
		<path id="path5131" class="st4" d="M235.4,14l71.4-1.5l71.4,1.5h-71.4H235.4z"/>
		<path id="path5133" class="st4" d="M261.3,8.3l45.5,1l45.5-1h-45.5H261.3z"/>
		<path id="path5135" class="st4" d="M282.1,5.7l24.8-0.5l24.7,0.5h-24.7H282.1z"/>
		<path id="path5127-6" class="st4" d="M130.5,77.5l48.1,1l48.1-1h-48.1H130.5z"/>
		<path id="path5129-2" class="st4" d="M156.4,84.5l33.7-0.6l33.7,0.6h-33.7H156.4z"/>
		<path id="path5131-6" class="st4" d="M130.5,68.7l71.4-1l71.4,1h-71.4H130.5z"/>
	</g>
	<circle id="path4770-6-7-0-9-9" class="st8" cx="405.2" cy="147.1" r="1.2"/>
	<circle id="path4770-6-7-0-9-9-2" class="st8" cx="425.6" cy="153.1" r="1.2"/>
	<g id="g5500">
		<circle id="path4770" class="st8" cx="459.4" cy="-202.4" r="5.2"/>
		<circle id="path4770-3" class="st8" cx="99.3" cy="-69.8" r="2.4"/>
		<circle id="path4770-6" class="st8" cx="92.3" cy="-342.7" r="3.7"/>
		<circle id="path4770-6-7" class="st8" cx="399.5" cy="-118.8" r="3.7"/>
		<circle id="path4770-6-5" class="st8" cx="123.3" cy="-34" r="2.7"/>
		
			<ellipse id="path4770-35" transform="matrix(4.797265e-02 -0.9988 0.9988 4.797265e-02 655.8411 439.0151)" class="st8" cx="558.2" cy="-124.5" rx="4.5" ry="4.5"/>
		
			<ellipse id="path4770-6-7-6" transform="matrix(4.797267e-02 -0.9988 0.9988 4.797267e-02 731.0125 119.5887)" class="st8" cx="428.2" cy="-323.7" rx="3.2" ry="3.2"/>
		<circle id="path4770-6-7-6-2" class="st8" cx="48.1" cy="-244.2" r="1.5"/>
		<circle id="path4770-6-5-9" class="st8" cx="513.6" cy="-171.3" r="2.7"/>
		<circle id="path4770-6-5-1" class="st8" cx="45.8" cy="-404.9" r="2.1"/>
		<circle id="path4770-6-5-2" class="st8" cx="547.6" cy="35.8" r="2.7"/>
		<circle id="path4770-6-5-2-7" class="st8" cx="220.6" cy="36.9" r="1.6"/>
		<circle id="path4770-6-7-0" class="st8" cx="45.1" cy="24.8" r="2.4"/>
		<circle id="path4770-6-7-0-3" class="st8" cx="407.9" cy="-109.9" r="0.4"/>
		<circle id="path4770-6-7-0-3-6" class="st8" cx="244.2" cy="54.6" r="1.1"/>
		<circle id="path4770-6-1" class="st8" cx="98.8" cy="-234.5" r="0.9"/>
		<circle id="path4770-6-7-6-8" class="st8" cx="37" cy="-355.6" r="3.2"/>
		<circle id="path4770-6-7-6-7" class="st8" cx="99.5" cy="-398.8" r="2.1"/>
		<circle id="path4770-6-7-0-9-9-0" class="st8" cx="403.8" cy="62.5" r="0.6"/>
	</g>
	<g id="g5521" transform="matrix(1.0727289,0,0,-0.26928782,-25.114177,963.58425)">
		<ellipse id="circle5523" class="st9" cx="464.1" cy="2489" rx="5.6" ry="1.4"/>
		<ellipse id="circle5525" class="st9" cx="104" cy="2621.6" rx="2.6" ry="0.6"/>
		<ellipse id="circle5527" class="st9" cx="97" cy="2348.8" rx="4" ry="1"/>
		<ellipse id="circle5529" class="st9" cx="404.2" cy="2572.6" rx="4" ry="1"/>
		<ellipse id="circle5531" class="st9" cx="128" cy="2657.5" rx="2.9" ry="0.7"/>
		<ellipse id="circle5533" class="st9" cx="562.9" cy="2566.9" rx="4.8" ry="1.2"/>
		<ellipse id="circle5535" class="st9" cx="432.9" cy="2367.8" rx="3.4" ry="0.9"/>
		<ellipse id="circle5537" class="st9" cx="52.8" cy="2447.2" rx="1.6" ry="0.4"/>
		<ellipse id="circle5539" class="st9" cx="518.3" cy="2520.2" rx="2.9" ry="0.7"/>
		<ellipse id="circle5541" class="st9" cx="50.5" cy="2286.6" rx="2.3" ry="0.6"/>
		<ellipse id="circle5543" class="st9" cx="552.3" cy="2727.2" rx="2.9" ry="0.7"/>
		<ellipse id="circle5545" class="st9" cx="225.3" cy="2728.4" rx="1.7" ry="0.4"/>
		<ellipse id="circle5547" class="st9" cx="49.8" cy="2716.3" rx="2.6" ry="0.6"/>
		<ellipse id="circle5549" class="st9" cx="412.5" cy="2581.6" rx="0.5" ry="0.1"/>
		<ellipse id="circle5551" class="st9" cx="248.9" cy="2746.1" rx="1.2" ry="0.3"/>
		<ellipse id="circle5553" class="st9" cx="103.5" cy="2457" rx="1" ry="0.2"/>
		<ellipse id="circle5555" class="st9" cx="41.7" cy="2335.9" rx="3.4" ry="0.9"/>
		<ellipse id="circle5557" class="st9" cx="104.2" cy="2292.6" rx="2.3" ry="0.6"/>
		<ellipse id="circle5559" class="st9" cx="408.5" cy="2753.9" rx="0.7" ry="0.2"/>
	</g>
</g>
</svg>
